<svg width="24" height="19" viewBox="0 0 24 19" fill="none" xmlns="http://www.w3.org/2000/svg">
<path d="M0.0683594 10.4412C0.0683594 6.76074 1.99097 3.6626 6.68213 2.06958L12.2632 0.212891C12.45 0.135986 12.6587 0.0810547 12.9333 0.0810547C13.5925 0.0810547 14.1199 0.597412 14.1199 1.38843C14.1199 1.90479 13.8672 2.28931 13.2739 2.54199L9.2749 4.24487C8.9563 4.37671 8.83545 4.5415 8.83545 4.72827C8.83545 4.93701 9.01123 5.13477 9.31885 5.13477H22.1399C22.9968 5.13477 23.5571 5.6731 23.5571 6.44214C23.5571 7.16724 22.9968 7.72754 22.1399 7.72754H13.3948C12.9224 7.72754 12.6917 7.95825 12.6917 8.26587C12.6917 8.54053 12.9224 8.78223 13.3948 8.78223H15.9985C16.394 8.78223 16.5918 9.00195 16.5918 9.45239C16.5918 10.4412 15.9546 11.2322 14.6252 11.2322H13.3948C12.9224 11.2322 12.6917 11.4629 12.6917 11.7705C12.6917 12.0452 12.9224 12.2869 13.3948 12.2869H14.7241C15.1196 12.2869 15.3064 12.4956 15.3064 12.957C15.3064 13.9897 14.5264 14.7478 13.3398 14.7478H12.6917C12.2302 14.7478 12.0105 14.9895 12.0105 15.2861C12.0105 15.5608 12.2302 15.8025 12.6917 15.8025H13.6694C13.9111 15.8025 14.043 15.9453 14.043 16.187C14.043 17.2856 12.8015 18.2634 10.78 18.2634H8.57178C3.19946 18.2634 0.0683594 15.4509 0.0683594 10.4412Z" fill="#4D5358"/>
</svg>
